<svg width="32" height="32" viewBox="0 0 32 32" fill="none" xmlns="http://www.w3.org/2000/svg">
<path d="M16 26.6667C15.2667 26.6667 14.6389 26.4056 14.1167 25.8833C13.5945 25.3611 13.3333 24.7333 13.3333 24C13.3333 23.2667 13.5945 22.6389 14.1167 22.1167C14.6389 21.5944 15.2667 21.3333 16 21.3333C16.7333 21.3333 17.3611 21.5944 17.8833 22.1167C18.4056 22.6389 18.6667 23.2667 18.6667 24C18.6667 24.7333 18.4056 25.3611 17.8833 25.8833C17.3611 26.4056 16.7333 26.6667 16 26.6667ZM16 18.6667C15.2667 18.6667 14.6389 18.4056 14.1167 17.8833C13.5945 17.3611 13.3333 16.7333 13.3333 16C13.3333 15.2667 13.5945 14.6389 14.1167 14.1167C14.6389 13.5944 15.2667 13.3333 16 13.3333C16.7333 13.3333 17.3611 13.5944 17.8833 14.1167C18.4056 14.6389 18.6667 15.2667 18.6667 16C18.6667 16.7333 18.4056 17.3611 17.8833 17.8833C17.3611 18.4056 16.7333 18.6667 16 18.6667ZM16 10.6667C15.2667 10.6667 14.6389 10.4056 14.1167 9.88333C13.5945 9.36111 13.3333 8.73333 13.3333 8C13.3333 7.26667 13.5945 6.63889 14.1167 6.11667C14.6389 5.59445 15.2667 5.33333 16 5.33333C16.7333 5.33333 17.3611 5.59445 17.8833 6.11667C18.4056 6.63889 18.6667 7.26667 18.6667 8C18.6667 8.73333 18.4056 9.36111 17.8833 9.88333C17.3611 10.4056 16.7333 10.6667 16 10.6667Z" fill="white"/>
</svg>
